<?xml version="1.0" ?><svg fill="none" height="512" viewBox="0 0 512 512" width="512" xmlns="http://www.w3.org/2000/svg">
<path d="M470.346 403.26C468.655 400.18 466.169 397.611 463.146 395.82L441.487 382.82C433.033 377.737 426.038 370.553 421.183 361.967C416.327 353.381 413.776 343.684 413.777 333.82V216.66C413.756 182.674 402.73 149.609 382.347 122.414C361.964 95.2185 333.321 75.3562 300.707 65.8C299.296 65.3984 298.054 64.5512 297.165 63.3849C296.277 62.2187 295.79 60.7962 295.777 59.33C295.777 48.899 291.633 38.8953 284.257 31.5195C276.881 24.1437 266.877 20 256.447 20C246.016 20 236.012 24.1437 228.636 31.5195C221.26 38.8953 217.116 48.899 217.116 59.33C217.102 60.7957 216.614 62.2175 215.726 63.3834C214.837 64.5493 213.596 65.397 212.186 65.8C179.572 75.3562 150.929 95.2185 130.546 122.414C110.163 149.609 99.1367 182.674 99.1164 216.66V333.8C99.1173 343.664 96.566 353.361 91.7104 361.947C86.8548 370.533 79.8601 377.717 71.4065 382.8L49.7465 395.8C46.0067 398.033 43.0981 401.426 41.4629 405.463C39.8276 409.501 39.5551 413.961 40.6867 418.168C41.8184 422.374 44.2922 426.096 47.7324 428.767C51.1726 431.439 55.3911 432.915 59.7465 432.97H453.086C456.534 432.888 459.903 431.923 462.871 430.165C465.839 428.408 468.305 425.918 470.034 422.934C471.764 419.95 472.698 416.572 472.747 413.124C472.797 409.676 471.96 406.272 470.317 403.24L470.346 403.26Z" fill="white"/><path d="M222.447 481.12C229.872 486.373 238.414 489.832 247.402 491.225C256.39 492.619 265.579 491.908 274.246 489.15C282.913 486.392 290.822 481.661 297.351 475.329C303.881 468.998 308.853 461.238 311.876 452.66H200.987C205.035 464.132 212.53 474.073 222.447 481.12Z" 
fill="white"/>
</svg>