<?xml version="1.0" ?>
<svg fill="none" height="512" viewBox="0 0 512 512" width="512" xmlns="http://www.w3.org/2000/svg">
<path d="M507.58 421.517C506.791 417.259 505.171 413.199 502.812 409.568C500.453 405.937 497.4 402.807 493.83 400.357V400.357L350.83 303.357C361.101 280.48 366.431 255.694 366.47 230.617V230.617C366.457 195.039 355.808 160.277 335.89 130.797C315.883 101.195 287.559 78.1811 254.49 64.657C221.395 51.0798 185.039 47.5275 149.942 54.4418C114.844 61.356 82.5523 78.4318 57.0796 103.547C38.1431 122.259 23.6283 144.967 14.5962 170.011C5.56399 195.054 2.24288 221.799 4.87595 248.291C7.50901 274.782 16.0295 300.351 29.8144 323.126C43.5994 345.902 62.3004 365.308 84.5498 379.927C114.404 399.65 149.399 410.159 185.18 410.147V410.147C232.808 410.119 278.535 391.455 312.58 358.147L456.32 454.657L456.4 454.707C463.609 459.582 472.443 461.434 481.004 459.865C489.564 458.296 497.168 453.432 502.18 446.317V446.317C504.681 442.749 506.447 438.718 507.374 434.46C508.301 430.202 508.371 425.802 507.58 421.517ZM232.58 343.447C209.972 352.724 185.138 355.155 161.16 350.439C137.183 345.722 115.119 334.066 97.7099 316.917C84.8187 304.192 74.9371 288.744 68.789 271.705C62.641 254.667 60.3819 236.469 62.1777 218.444C63.9735 200.419 69.7786 183.025 79.1674 167.534C88.5563 152.043 101.291 138.849 116.44 128.917C136.831 115.438 160.737 108.257 185.18 108.267V108.267C217.908 108.304 249.309 121.213 272.6 144.207C284.034 155.488 293.123 168.92 299.341 183.73C305.559 198.54 308.784 214.435 308.83 230.497C308.819 254.695 301.576 278.337 288.03 298.387C274.391 318.551 255.091 334.229 232.56 343.447H232.58Z" fill="white"/></svg>